<svg width="800" height="600" viewBox="0 0 800 600" xmlns="http://www.w3.org/2000/svg">
  <defs>
    <linearGradient id="bg" x1="0" y1="0" x2="1" y2="1">
      <stop offset="0%" stop-color="#fde4ec" />
      <stop offset="100%" stop-color="#f8d2ba" />
    </linearGradient>
    <linearGradient id="wave" x1="0" y1="1" x2="1" y2="0">
      <stop offset="0%" stop-color="#d97373" stop-opacity="0.65" />
      <stop offset="100%" stop-color="#c85a92" stop-opacity="0.85" />
    </linearGradient>
  </defs>
  <rect width="800" height="600" fill="url(#bg)" />
  <path d="M0 420C130 360 230 460 390 410C550 360 640 520 800 470V600H0Z" fill="url(#wave)" />
  <g transform="translate(120 150)">
    <circle cx="160" cy="120" r="110" fill="#fff" fill-opacity="0.7" />
    <ellipse cx="220" cy="180" rx="80" ry="120" fill="#fff" fill-opacity="0.45" />
    <path d="M150 80C180 40 260 30 290 120C320 210 270 280 210 280C140 280 80 210 90 150C100 90 130 100 150 80Z" fill="#f3b7c0" fill-opacity="0.85" />
  </g>
  <text x="70%" y="65%" text-anchor="middle" font-family="'Playfair Display', serif" font-size="64" fill="#b04863" opacity="0.4">SalonNova</text>
</svg>
